# Blender v2.69 (sub 0) OBJ File: 'dustbinlid.blend'
# www.blender.org
mtllib dustbinlid.mtl
o Cube_Cube.002
v 0.301442 0.379710 -0.053185
v 0.301442 0.379710 0.053185
v 0.288072 0.438110 -0.053185
v 0.288072 0.438110 0.053185
v 0.225378 0.449809 -0.053185
v 0.225378 0.379710 0.053185
v 0.225378 0.379710 -0.053185
v 0.225378 0.449809 0.053185
v 0.301442 0.264733 -0.053185
v 0.301442 0.264733 0.053185
v 0.225378 0.264733 0.053185
v 0.225378 0.264733 -0.053185
v 0.225378 0.326428 0.053185
v 0.225378 0.326428 -0.053185
v 0.301442 0.326428 -0.053185
v 0.301442 0.326428 0.053185
v 0.433453 0.264733 -0.053185
v 0.433453 0.264733 0.053185
v 0.422868 0.318629 -0.053185
v 0.422868 0.318629 0.053185
v 0.263410 0.449809 -0.053185
v 0.263410 0.379710 0.053185
v 0.263410 0.379710 -0.053185
v 0.263410 0.449809 0.053185
v 0.263410 0.264733 0.053185
v 0.263410 0.264733 -0.053185
v 0.263410 0.326428 -0.053185
v 0.263410 0.326428 0.053185
v 0.301442 0.414760 -0.053185
v 0.301442 0.414760 0.053185
v 0.225378 0.414760 -0.053185
v 0.225378 0.414760 0.053185
v 0.263410 0.414760 -0.053185
v 0.263410 0.414760 0.053185
v 0.400423 0.326428 -0.053185
v 0.400423 0.326428 0.053185
v 0.400423 0.264733 0.053185
v 0.400423 0.264733 -0.053185
v 0.225378 0.295581 -0.053185
v 0.301442 0.295581 -0.053185
v 0.225378 0.295581 0.053185
v 0.301442 0.295581 0.053185
v 0.433453 0.295581 -0.053185
v 0.433453 0.295581 0.053185
v 0.263410 0.295581 -0.053185
v 0.263410 0.295581 0.053185
v 0.400423 0.295581 0.053185
v 0.400423 0.295581 -0.053185
v -0.301442 0.379710 -0.053185
v -0.301442 0.379710 0.053185
v -0.288072 0.438110 -0.053185
v -0.288072 0.438110 0.053185
v 0.000000 0.449809 -0.053185
v 0.000000 0.379710 -0.053185
v 0.000000 0.449809 0.053185
v 0.000000 0.379710 0.053185
v -0.225378 0.449809 -0.053185
v -0.225378 0.379710 0.053185
v -0.225378 0.379710 -0.053185
v -0.225378 0.449809 0.053185
v -0.301442 0.264733 -0.053185
v -0.301442 0.264733 0.053185
v -0.225378 0.264733 0.053185
v -0.225378 0.264733 -0.053185
v -0.225378 0.326428 0.053185
v -0.225378 0.326428 -0.053185
v -0.301442 0.326428 -0.053185
v -0.301442 0.326428 0.053185
v -0.433453 0.264733 -0.053185
v -0.433453 0.264733 0.053185
v -0.422868 0.318629 -0.053185
v -0.422868 0.318629 0.053185
v -0.263410 0.449809 -0.053185
v -0.263410 0.379710 0.053185
v -0.263410 0.379710 -0.053185
v -0.263410 0.449809 0.053185
v -0.263410 0.264733 0.053185
v -0.263410 0.264733 -0.053185
v -0.263410 0.326428 -0.053185
v -0.263410 0.326428 0.053185
v -0.301442 0.414760 -0.053185
v -0.301442 0.414760 0.053185
v 0.000000 0.414760 -0.053185
v 0.000000 0.414760 0.053185
v -0.225378 0.414760 -0.053185
v -0.225378 0.414760 0.053185
v -0.263410 0.414760 -0.053185
v -0.263410 0.414760 0.053185
v -0.400423 0.326428 -0.053185
v -0.400423 0.326428 0.053185
v -0.400423 0.264733 0.053185
v -0.400423 0.264733 -0.053185
v -0.225378 0.295581 -0.053185
v -0.301442 0.295581 -0.053185
v -0.225378 0.295581 0.053185
v -0.301442 0.295581 0.053185
v -0.433453 0.295581 -0.053185
v -0.433453 0.295581 0.053185
v -0.263410 0.295581 -0.053185
v -0.263410 0.295581 0.053185
v -0.400423 0.295581 0.053185
v -0.400423 0.295581 -0.053185
vn 0.000000 0.000000 -1.000000
vn 1.000000 0.000000 0.000000
vn -1.000000 0.000000 0.000000
vn 0.000000 0.000000 1.000000
vn 0.000000 1.000000 0.000000
vn 0.000000 -1.000000 0.000000
vn 0.328243 0.944594 0.000000
vn 0.428604 0.903493 0.000000
vn -0.000001 0.000000 -1.000000
vn 0.867801 0.496912 0.000000
vn 0.908747 0.417348 0.000000
vn -0.328243 0.944594 0.000000
vn -0.428604 0.903493 0.000000
vn -0.867801 0.496912 0.000000
vn -0.908747 0.417348 0.000000
vn 0.328242 0.944594 0.000000
vn 0.428602 0.903493 0.000000
vn 0.908746 0.417350 0.000000
vn -0.328242 0.944594 0.000000
vn -0.428602 0.903493 0.000000
vn -0.908746 0.417350 0.000000
usemtl None
s off
f 33//1 29//1 23//1
f 29//2 30//2 1//2
f 41//3 39//3 11//3
f 32//4 84//4 6//4
f 8//5 5//5 55//5
f 83//1 31//1 54//1
f 56//6 54//6 6//6
f 34//4 32//4 22//4
f 24//5 21//5 8//5
f 25//6 26//6 10//6
f 45//1 40//1 26//1
f 46//4 41//4 25//4
f 35//7 36//7 19//7
f 6//3 7//3 13//3
f 23//1 1//1 27//1
f 22//4 6//4 28//4
f 1//2 2//2 15//2
f 43//2 44//2 17//2
f 47//4 37//4 44//4
f 48//1 35//1 43//1
f 37//6 38//6 18//6
f 31//1 33//1 7//1
f 30//4 34//4 2//4
f 4//8 3//8 24//8
f 11//6 12//6 25//6
f 39//1 45//1 12//1
f 42//4 46//4 10//4
f 7//1 23//1 14//1
f 2//4 22//4 16//4
f 21//9 3//9 29//9
f 3//10 4//10 29//10
f 8//4 55//4 32//4
f 53//1 5//1 83//1
f 24//4 8//4 34//4
f 5//1 21//1 31//1
f 4//4 24//4 30//4
f 15//5 16//5 35//5
f 42//4 10//4 47//4
f 40//1 15//1 48//1
f 10//6 9//6 37//6
f 13//3 14//3 41//3
f 27//1 15//1 45//1
f 28//4 13//4 46//4
f 19//11 20//11 43//11
f 36//4 47//4 44//4
f 38//1 48//1 17//1
f 14//1 27//1 39//1
f 16//4 28//4 42//4
f 16//4 42//4 36//4
f 9//1 40//1 38//1
f 87//1 75//1 81//1
f 81//3 49//3 82//3
f 95//2 63//2 93//2
f 86//4 58//4 84//4
f 60//5 55//5 57//5
f 83//1 54//1 85//1
f 56//6 58//6 54//6
f 88//4 74//4 86//4
f 76//5 60//5 73//5
f 77//6 62//6 78//6
f 99//1 78//1 94//1
f 100//4 77//4 95//4
f 89//12 71//12 90//12
f 58//2 65//2 59//2
f 75//1 79//1 49//1
f 74//4 80//4 58//4
f 49//3 67//3 50//3
f 97//3 69//3 98//3
f 101//4 98//4 91//4
f 102//1 97//1 89//1
f 91//6 70//6 92//6
f 85//1 59//1 87//1
f 82//4 50//4 88//4
f 52//13 76//13 51//13
f 63//6 77//6 64//6
f 93//1 64//1 99//1
f 96//4 62//4 100//4
f 59//1 66//1 75//1
f 50//4 68//4 74//4
f 73//1 87//1 81//1
f 51//14 81//14 52//14
f 60//4 86//4 55//4
f 53//1 83//1 57//1
f 76//4 88//4 60//4
f 57//1 85//1 73//1
f 52//4 82//4 76//4
f 67//5 89//5 68//5
f 96//4 101//4 62//4
f 94//1 102//1 67//1
f 62//6 91//6 61//6
f 65//2 95//2 66//2
f 79//1 99//1 67//1
f 80//4 100//4 65//4
f 71//15 97//15 72//15
f 90//4 72//4 98//4
f 92//1 69//1 102//1
f 66//1 93//1 79//1
f 68//4 96//4 80//4
f 68//4 90//4 96//4
f 61//1 92//1 94//1
f 29//1 1//1 23//1
f 30//2 2//2 1//2
f 39//3 12//3 11//3
f 84//4 56//4 6//4
f 5//5 53//5 55//5
f 31//1 7//1 54//1
f 54//6 7//6 6//6
f 32//4 6//4 22//4
f 21//5 5//5 8//5
f 26//6 9//6 10//6
f 40//1 9//1 26//1
f 41//4 11//4 25//4
f 36//16 20//16 19//16
f 7//3 14//3 13//3
f 1//1 15//1 27//1
f 6//4 13//4 28//4
f 2//2 16//2 15//2
f 44//2 18//2 17//2
f 37//4 18//4 44//4
f 35//1 19//1 43//1
f 38//6 17//6 18//6
f 33//1 23//1 7//1
f 34//4 22//4 2//4
f 3//17 21//17 24//17
f 12//6 26//6 25//6
f 45//1 26//1 12//1
f 46//4 25//4 10//4
f 23//1 27//1 14//1
f 22//4 28//4 16//4
f 33//1 21//1 29//1
f 4//10 30//10 29//10
f 55//4 84//4 32//4
f 5//1 31//1 83//1
f 8//4 32//4 34//4
f 21//1 33//1 31//1
f 24//4 34//4 30//4
f 16//5 36//5 35//5
f 10//4 37//4 47//4
f 15//1 35//1 48//1
f 9//6 38//6 37//6
f 14//3 39//3 41//3
f 15//1 40//1 45//1
f 13//4 41//4 46//4
f 20//18 44//18 43//18
f 20//4 36//4 44//4
f 48//1 43//1 17//1
f 27//1 45//1 39//1
f 28//4 46//4 42//4
f 42//4 47//4 36//4
f 40//1 48//1 38//1
f 75//1 49//1 81//1
f 49//3 50//3 82//3
f 63//2 64//2 93//2
f 58//4 56//4 84//4
f 55//5 53//5 57//5
f 54//1 59//1 85//1
f 58//6 59//6 54//6
f 74//4 58//4 86//4
f 60//5 57//5 73//5
f 62//6 61//6 78//6
f 78//1 61//1 94//1
f 77//4 63//4 95//4
f 71//19 72//19 90//19
f 65//2 66//2 59//2
f 79//1 67//1 49//1
f 80//4 65//4 58//4
f 67//3 68//3 50//3
f 69//3 70//3 98//3
f 98//4 70//4 91//4
f 97//1 71//1 89//1
f 70//6 69//6 92//6
f 59//1 75//1 87//1
f 50//4 74//4 88//4
f 76//20 73//20 51//20
f 77//6 78//6 64//6
f 64//1 78//1 99//1
f 62//4 77//4 100//4
f 66//1 79//1 75//1
f 68//4 80//4 74//4
f 51//1 73//1 81//1
f 81//14 82//14 52//14
f 86//4 84//4 55//4
f 83//1 85//1 57//1
f 88//4 86//4 60//4
f 85//1 87//1 73//1
f 82//4 88//4 76//4
f 89//5 90//5 68//5
f 101//4 91//4 62//4
f 102//1 89//1 67//1
f 91//6 92//6 61//6
f 95//2 93//2 66//2
f 99//1 94//1 67//1
f 100//4 95//4 65//4
f 97//21 98//21 72//21
f 101//4 90//4 98//4
f 69//1 97//1 102//1
f 93//1 99//1 79//1
f 96//4 100//4 80//4
f 90//4 101//4 96//4
f 92//1 102//1 94//1
o Cylinder
v -0.000000 0.092254 0.000000
v 0.000000 0.264606 -0.000000
v -0.000000 0.092254 -1.519938
v 0.000000 0.263611 -0.692250
v 0.296525 0.092254 -1.490733
v 0.135051 0.263611 -0.678949
v 0.581655 0.092254 -1.404240
v 0.264913 0.263611 -0.639556
v 0.844433 0.092254 -1.263783
v 0.384593 0.263611 -0.575585
v 1.074759 0.092254 -1.074759
v 0.489495 0.263611 -0.489495
v 1.263783 0.092254 -0.844433
v 0.575585 0.263611 -0.384594
v 1.404240 0.092254 -0.581655
v 0.639555 0.263611 -0.264913
v 1.490733 0.092254 -0.296525
v 0.678948 0.263611 -0.135051
v 1.519938 0.092254 -0.000000
v 0.692250 0.263611 -0.000000
v 1.490733 0.092254 0.296525
v 0.678948 0.263611 0.135051
v 1.404240 0.092254 0.581655
v 0.639555 0.263611 0.264912
v 1.263783 0.092254 0.844433
v 0.575585 0.263611 0.384593
v 1.074759 0.092254 1.074759
v 0.489495 0.263611 0.489494
v 0.844433 0.092254 1.263783
v 0.384593 0.263611 0.575584
v 0.581655 0.092254 1.404240
v 0.264912 0.263611 0.639555
v 0.296525 0.092254 1.490733
v 0.135051 0.263611 0.678948
v -0.000000 0.092254 1.519938
v -0.000000 0.263611 0.692250
v -0.296526 0.092254 1.490733
v -0.135051 0.263611 0.678948
v -0.581656 0.092254 1.404240
v -0.264913 0.263611 0.639555
v -0.844433 0.092254 1.263782
v -0.384594 0.263611 0.575584
v -1.074759 0.092254 1.074758
v -0.489495 0.263611 0.489494
v -1.263783 0.092254 0.844432
v -0.575585 0.263611 0.384593
v -1.404240 0.092254 0.581654
v -0.639555 0.263611 0.264912
v -1.490734 0.092254 0.296524
v -0.678948 0.263611 0.135050
v -1.519938 0.092254 -0.000001
v -0.692250 0.263611 -0.000001
v -1.490733 0.092254 -0.296527
v -0.678948 0.263611 -0.135052
v -1.404239 0.092254 -0.581657
v -0.639555 0.263611 -0.264913
v -1.263782 0.092254 -0.844434
v -0.575584 0.263611 -0.384594
v -1.074757 0.092254 -1.074760
v -0.489494 0.263611 -0.489495
v -0.844431 0.092254 -1.263784
v -0.384593 0.263611 -0.575585
v -0.581653 0.092254 -1.404241
v -0.264912 0.263611 -0.639556
v -0.296523 0.092254 -1.490734
v -0.135050 0.263611 -0.678949
v 0.000000 0.230661 -1.396039
v 0.272354 0.230661 -1.369215
v 0.534241 0.230661 -1.289772
v 0.775598 0.230661 -1.160764
v 0.987149 0.230661 -0.987149
v 1.160764 0.230661 -0.775598
v 1.289772 0.230661 -0.534241
v 1.369215 0.230661 -0.272354
v 1.396039 0.230661 -0.000000
v 1.369215 0.230661 0.272354
v 1.289772 0.230661 0.534241
v 1.160764 0.230661 0.775598
v 0.987149 0.230661 0.987149
v 0.775598 0.230661 1.160764
v 0.534241 0.230661 1.289772
v 0.272353 0.230661 1.369215
v -0.000000 0.230661 1.396039
v -0.272354 0.230661 1.369215
v -0.534242 0.230661 1.289772
v -0.775598 0.230661 1.160764
v -0.987149 0.230661 0.987148
v -1.160765 0.230661 0.775597
v -1.289772 0.230661 0.534240
v -1.369215 0.230661 0.272352
v -1.396039 0.230661 -0.000001
v -1.369214 0.230661 -0.272355
v -1.289771 0.230661 -0.534243
v -1.160763 0.230661 -0.775599
v -0.987147 0.230661 -0.987150
v -0.775596 0.230661 -1.160765
v -0.534239 0.230661 -1.289773
v -0.272352 0.230661 -1.369215
v 0.292557 0.183975 -1.470781
v 0.573870 0.183975 -1.385446
v 0.833131 0.183975 -1.246868
v 1.060374 0.183975 -1.060374
v 1.246868 0.183975 -0.833131
v 1.385446 0.183975 -0.573870
v 1.470781 0.183975 -0.292557
v 1.499596 0.183975 -0.000000
v 1.470781 0.183975 0.292556
v 1.385446 0.183975 0.573870
v 1.246868 0.183975 0.833131
v 1.060374 0.183975 1.060374
v 0.833131 0.183975 1.246868
v 0.573870 0.183975 1.385446
v 0.292556 0.183975 1.470781
v -0.000000 0.183975 1.499596
v -0.292557 0.183975 1.470781
v -0.573871 0.183975 1.385445
v -0.833131 0.183975 1.246868
v -1.060375 0.183975 1.060374
v -1.246869 0.183975 0.833130
v -1.385446 0.183975 0.573869
v -1.470782 0.183975 0.292555
v -1.499596 0.183975 -0.000001
v -1.470781 0.183975 -0.292558
v -1.385445 0.183975 -0.573872
v -1.246867 0.183975 -0.833132
v -1.060373 0.183975 -1.060376
v -0.833129 0.183975 -1.246869
v -0.573868 0.183975 -1.385447
v -0.292554 0.183975 -1.470782
v 0.000000 0.183975 -1.499596
vn 0.000000 -1.000000 0.000000
vn 0.000142 0.999999 -0.001438
vn 0.004606 0.998895 -0.046766
vn 0.000419 0.999999 -0.001382
vn 0.013641 0.998895 -0.044968
vn 0.000681 0.999999 -0.001274
vn 0.022152 0.998895 -0.041443
vn 0.000916 0.999999 -0.001117
vn 0.029811 0.998895 -0.036325
vn 0.001117 0.999999 -0.000916
vn 0.036325 0.998895 -0.029811
vn 0.001274 0.999999 -0.000681
vn 0.041443 0.998895 -0.022152
vn 0.001382 0.999999 -0.000419
vn 0.044968 0.998895 -0.013641
vn 0.001438 0.999999 -0.000142
vn 0.046766 0.998895 -0.004606
vn 0.001438 0.999999 0.000142
vn 0.046766 0.998895 0.004606
vn 0.001382 0.999999 0.000419
vn 0.044968 0.998895 0.013641
vn 0.001274 0.999999 0.000681
vn 0.041443 0.998895 0.022152
vn 0.001117 0.999999 0.000916
vn 0.036325 0.998895 0.029811
vn 0.000916 0.999999 0.001117
vn 0.029811 0.998895 0.036325
vn 0.000681 0.999999 0.001274
vn 0.022152 0.998895 0.041443
vn 0.000419 0.999999 0.001382
vn 0.013641 0.998895 0.044968
vn 0.000142 0.999999 0.001438
vn 0.004606 0.998895 0.046766
vn -0.000142 0.999999 0.001438
vn -0.004606 0.998895 0.046766
vn -0.000419 0.999999 0.001382
vn -0.013641 0.998895 0.044968
vn -0.000681 0.999999 0.001274
vn -0.022152 0.998895 0.041443
vn -0.000916 0.999999 0.001117
vn -0.029811 0.998895 0.036325
vn -0.001117 0.999999 0.000917
vn -0.036325 0.998895 0.029811
vn -0.001274 0.999999 0.000681
vn -0.041443 0.998895 0.022152
vn -0.001382 0.999999 0.000419
vn -0.044968 0.998895 0.013641
vn -0.001438 0.999999 0.000142
vn -0.046766 0.998895 0.004606
vn -0.001438 0.999999 -0.000142
vn -0.046766 0.998895 -0.004606
vn -0.001382 0.999999 -0.000419
vn -0.044968 0.998895 -0.013641
vn -0.001274 0.999999 -0.000681
vn -0.041443 0.998895 -0.022152
vn -0.001117 0.999999 -0.000916
vn -0.036325 0.998895 -0.029811
vn -0.000916 0.999999 -0.001117
vn -0.029811 0.998895 -0.036325
vn -0.000681 0.999999 -0.001274
vn -0.022152 0.998895 -0.041443
vn -0.000419 0.999999 -0.001382
vn -0.013641 0.998895 -0.044968
vn -0.000142 0.999999 -0.001438
vn -0.004606 0.998895 -0.046766
vn 0.040446 0.910893 -0.410655
vn 0.119783 0.910893 -0.394874
vn 0.194518 0.910893 -0.363918
vn 0.261777 0.910893 -0.318977
vn 0.318977 0.910893 -0.261777
vn 0.363918 0.910893 -0.194518
vn 0.394874 0.910893 -0.119784
vn 0.410655 0.910893 -0.040446
vn 0.410655 0.910893 0.040446
vn 0.394874 0.910893 0.119784
vn 0.363918 0.910893 0.194518
vn 0.318977 0.910893 0.261778
vn 0.261777 0.910894 0.318976
vn 0.194518 0.910893 0.363918
vn 0.119784 0.910893 0.394874
vn 0.040446 0.910893 0.410655
vn -0.040446 0.910893 0.410655
vn -0.119784 0.910893 0.394874
vn -0.194518 0.910893 0.363918
vn -0.261777 0.910893 0.318976
vn -0.318977 0.910893 0.261777
vn -0.363917 0.910894 0.194517
vn -0.394873 0.910894 0.119783
vn -0.410655 0.910893 0.040446
vn -0.410656 0.910893 -0.040447
vn -0.394873 0.910894 -0.119784
vn -0.363918 0.910893 -0.194518
vn -0.318977 0.910893 -0.261778
vn -0.261776 0.910893 -0.318976
vn -0.194518 0.910893 -0.363918
vn -0.119783 0.910893 -0.394874
vn -0.040446 0.910893 -0.410655
vn 0.095714 0.215534 -0.971794
vn 0.283461 0.215534 -0.934449
vn 0.460317 0.215534 -0.861193
vn 0.619483 0.215534 -0.754842
vn 0.754842 0.215532 -0.619484
vn 0.861193 0.215532 -0.460317
vn 0.934449 0.215535 -0.283462
vn 0.971795 0.215532 -0.095713
vn 0.971794 0.215534 0.095713
vn 0.934449 0.215532 0.283462
vn 0.861194 0.215532 0.460317
vn 0.754841 0.215534 0.619483
vn 0.619483 0.215534 0.754841
vn 0.460316 0.215535 0.861193
vn 0.283462 0.215534 0.934449
vn 0.095714 0.215534 0.971794
vn -0.095714 0.215534 0.971794
vn -0.283463 0.215534 0.934448
vn -0.460317 0.215533 0.861193
vn -0.619484 0.215534 0.754841
vn -0.754842 0.215534 0.619482
vn -0.861193 0.215536 0.460316
vn -0.934449 0.215534 0.283461
vn -0.971794 0.215536 0.095713
vn -0.971794 0.215536 -0.095714
vn -0.934448 0.215534 -0.283463
vn -0.861193 0.215534 -0.460318
vn -0.754841 0.215534 -0.619484
vn -0.619482 0.215533 -0.754842
vn -0.460316 0.215534 -0.861194
vn -0.283461 0.215534 -0.934449
vn -0.095713 0.215534 -0.971794
vn 0.119784 0.910893 -0.394874
vn 0.318977 0.910893 -0.261778
vn 0.394873 0.910894 -0.119783
vn 0.394873 0.910893 0.119784
vn 0.318976 0.910893 0.261777
vn 0.261778 0.910893 0.318977
vn 0.194518 0.910893 0.363917
vn 0.119783 0.910893 0.394874
vn -0.119784 0.910893 0.394873
vn -0.363918 0.910893 0.194518
vn -0.394874 0.910893 0.119783
vn -0.410654 0.910894 0.040445
vn -0.410655 0.910893 -0.040447
vn -0.394874 0.910893 -0.119784
vn -0.363917 0.910894 -0.194518
vn -0.318976 0.910894 -0.261777
vn -0.261777 0.910893 -0.318977
vn -0.194517 0.910893 -0.363918
vn 0.095713 0.215534 -0.971794
vn 0.283463 0.215534 -0.934448
vn 0.460317 0.215535 -0.861193
vn 0.619483 0.215533 -0.754842
vn 0.754842 0.215537 -0.619482
vn 0.861193 0.215534 -0.460317
vn 0.934448 0.215536 -0.283462
vn 0.971794 0.215533 -0.095713
vn 0.971794 0.215533 0.095713
vn 0.934448 0.215537 0.283462
vn 0.861193 0.215536 0.460317
vn 0.754842 0.215536 0.619482
vn 0.619483 0.215535 0.754842
vn 0.460317 0.215534 0.861193
vn 0.283461 0.215534 0.934449
vn 0.095713 0.215534 0.971794
vn -0.095713 0.215534 0.971794
vn -0.460317 0.215535 0.861193
vn -0.619483 0.215534 0.754842
vn -0.754842 0.215535 0.619482
vn -0.861194 0.215532 0.460317
vn -0.934449 0.215533 0.283461
vn -0.971795 0.215532 0.095713
vn -0.971794 0.215534 -0.095715
vn -0.934449 0.215534 -0.283463
vn -0.861192 0.215535 -0.460318
vn -0.754841 0.215533 -0.619484
vn -0.619482 0.215534 -0.754842
usemtl None
s off
f 103//22 105//22 107//22
f 104//23 108//23 106//23
f 169//24 106//24 170//24
f 103//22 107//22 109//22
f 104//25 110//25 108//25
f 170//26 108//26 171//26
f 103//22 109//22 111//22
f 104//27 112//27 110//27
f 171//28 110//28 172//28
f 103//22 111//22 113//22
f 104//29 114//29 112//29
f 172//30 112//30 173//30
f 103//22 113//22 115//22
f 104//31 116//31 114//31
f 173//32 114//32 174//32
f 103//22 115//22 117//22
f 104//33 118//33 116//33
f 174//34 116//34 175//34
f 103//22 117//22 119//22
f 104//35 120//35 118//35
f 175//36 118//36 176//36
f 103//22 119//22 121//22
f 104//37 122//37 120//37
f 176//38 120//38 177//38
f 103//22 121//22 123//22
f 104//39 124//39 122//39
f 177//40 122//40 178//40
f 103//22 123//22 125//22
f 104//41 126//41 124//41
f 178//42 124//42 179//42
f 103//22 125//22 127//22
f 104//43 128//43 126//43
f 179//44 126//44 180//44
f 103//22 127//22 129//22
f 104//45 130//45 128//45
f 180//46 128//46 181//46
f 103//22 129//22 131//22
f 104//47 132//47 130//47
f 181//48 130//48 182//48
f 103//22 131//22 133//22
f 104//49 134//49 132//49
f 182//50 132//50 183//50
f 103//22 133//22 135//22
f 104//51 136//51 134//51
f 183//52 134//52 184//52
f 103//22 135//22 137//22
f 104//53 138//53 136//53
f 184//54 136//54 185//54
f 103//22 137//22 139//22
f 104//55 140//55 138//55
f 185//56 138//56 186//56
f 103//22 139//22 141//22
f 104//57 142//57 140//57
f 186//58 140//58 187//58
f 103//22 141//22 143//22
f 104//59 144//59 142//59
f 187//60 142//60 188//60
f 103//22 143//22 145//22
f 104//61 146//61 144//61
f 188//62 144//62 189//62
f 103//22 145//22 147//22
f 104//63 148//63 146//63
f 189//64 146//64 190//64
f 103//22 147//22 149//22
f 104//65 150//65 148//65
f 190//66 148//66 191//66
f 103//22 149//22 151//22
f 104//67 152//67 150//67
f 191//68 150//68 192//68
f 103//22 151//22 153//22
f 104//69 154//69 152//69
f 192//70 152//70 193//70
f 103//22 153//22 155//22
f 104//71 156//71 154//71
f 193//72 154//72 194//72
f 103//22 155//22 157//22
f 104//73 158//73 156//73
f 194//74 156//74 195//74
f 103//22 157//22 159//22
f 104//75 160//75 158//75
f 195//76 158//76 196//76
f 103//22 159//22 161//22
f 104//77 162//77 160//77
f 196//78 160//78 197//78
f 103//22 161//22 163//22
f 104//79 164//79 162//79
f 197//80 162//80 198//80
f 103//22 163//22 165//22
f 104//81 166//81 164//81
f 198//82 164//82 199//82
f 103//22 165//22 167//22
f 104//83 168//83 166//83
f 199//84 166//84 200//84
f 103//22 167//22 105//22
f 104//85 106//85 168//85
f 200//86 168//86 169//86
f 232//87 169//87 201//87
f 201//88 170//88 202//88
f 202//89 171//89 203//89
f 203//90 172//90 204//90
f 204//91 173//91 205//91
f 205//92 174//92 206//92
f 206//93 175//93 207//93
f 207//94 176//94 208//94
f 208//95 177//95 209//95
f 209//96 178//96 210//96
f 210//97 179//97 211//97
f 211//98 180//98 212//98
f 212//99 181//99 213//99
f 213//100 182//100 214//100
f 214//101 183//101 215//101
f 215//102 184//102 216//102
f 216//103 185//103 217//103
f 217//104 186//104 218//104
f 218//105 187//105 219//105
f 219//106 188//106 220//106
f 220//107 189//107 221//107
f 221//108 190//108 222//108
f 222//109 191//109 223//109
f 223//110 192//110 224//110
f 224//111 193//111 225//111
f 225//112 194//112 226//112
f 226//113 195//113 227//113
f 227//114 196//114 228//114
f 228//115 197//115 229//115
f 229//116 198//116 230//116
f 230//117 199//117 231//117
f 231//118 200//118 232//118
f 105//119 232//119 107//119
f 107//120 201//120 109//120
f 109//121 202//121 111//121
f 111//122 203//122 113//122
f 113//123 204//123 115//123
f 115//124 205//124 117//124
f 117//125 206//125 119//125
f 119//126 207//126 121//126
f 121//127 208//127 123//127
f 123//128 209//128 125//128
f 125//129 210//129 127//129
f 127//130 211//130 129//130
f 129//131 212//131 131//131
f 131//132 213//132 133//132
f 133//133 214//133 135//133
f 135//134 215//134 137//134
f 137//135 216//135 139//135
f 139//136 217//136 141//136
f 141//137 218//137 143//137
f 143//138 219//138 145//138
f 145//139 220//139 147//139
f 147//140 221//140 149//140
f 149//141 222//141 151//141
f 151//142 223//142 153//142
f 153//143 224//143 155//143
f 155//144 225//144 157//144
f 157//145 226//145 159//145
f 159//146 227//146 161//146
f 161//147 228//147 163//147
f 163//148 229//148 165//148
f 165//149 230//149 167//149
f 167//150 231//150 105//150
f 106//24 108//24 170//24
f 108//26 110//26 171//26
f 110//28 112//28 172//28
f 112//30 114//30 173//30
f 114//32 116//32 174//32
f 116//34 118//34 175//34
f 118//36 120//36 176//36
f 120//38 122//38 177//38
f 122//40 124//40 178//40
f 124//42 126//42 179//42
f 126//44 128//44 180//44
f 128//46 130//46 181//46
f 130//48 132//48 182//48
f 132//50 134//50 183//50
f 134//52 136//52 184//52
f 136//54 138//54 185//54
f 138//56 140//56 186//56
f 140//58 142//58 187//58
f 142//60 144//60 188//60
f 144//62 146//62 189//62
f 146//64 148//64 190//64
f 148//66 150//66 191//66
f 150//68 152//68 192//68
f 152//70 154//70 193//70
f 154//72 156//72 194//72
f 156//74 158//74 195//74
f 158//76 160//76 196//76
f 160//78 162//78 197//78
f 162//80 164//80 198//80
f 164//82 166//82 199//82
f 166//84 168//84 200//84
f 168//86 106//86 169//86
f 169//87 170//87 201//87
f 170//151 171//151 202//151
f 171//89 172//89 203//89
f 172//90 173//90 204//90
f 173//152 174//152 205//152
f 174//92 175//92 206//92
f 175//153 176//153 207//153
f 176//94 177//94 208//94
f 177//95 178//95 209//95
f 178//154 179//154 210//154
f 179//97 180//97 211//97
f 180//155 181//155 212//155
f 181//156 182//156 213//156
f 182//157 183//157 214//157
f 183//158 184//158 215//158
f 184//102 185//102 216//102
f 185//103 186//103 217//103
f 186//159 187//159 218//159
f 187//105 188//105 219//105
f 188//106 189//106 220//106
f 189//107 190//107 221//107
f 190//160 191//160 222//160
f 191//161 192//161 223//161
f 192//162 193//162 224//162
f 193//163 194//163 225//163
f 194//164 195//164 226//164
f 195//165 196//165 227//165
f 196//166 197//166 228//166
f 197//167 198//167 229//167
f 198//168 199//168 230//168
f 199//117 200//117 231//117
f 200//118 169//118 232//118
f 232//169 201//169 107//169
f 201//170 202//170 109//170
f 202//171 203//171 111//171
f 203//172 204//172 113//172
f 204//173 205//173 115//173
f 205//174 206//174 117//174
f 206//175 207//175 119//175
f 207//176 208//176 121//176
f 208//177 209//177 123//177
f 209//178 210//178 125//178
f 210//179 211//179 127//179
f 211//180 212//180 129//180
f 212//181 213//181 131//181
f 213//182 214//182 133//182
f 214//183 215//183 135//183
f 215//184 216//184 137//184
f 216//185 217//185 139//185
f 217//136 218//136 141//136
f 218//186 219//186 143//186
f 219//187 220//187 145//187
f 220//188 221//188 147//188
f 221//189 222//189 149//189
f 222//190 223//190 151//190
f 223//191 224//191 153//191
f 224//192 225//192 155//192
f 225//193 226//193 157//193
f 226//194 227//194 159//194
f 227//195 228//195 161//195
f 228//196 229//196 163//196
f 229//148 230//148 165//148
f 230//149 231//149 167//149
f 231//150 232//150 105//150
